<?xml version="1.0" encoding="utf-8"?>
<!-- Generator: Adobe Illustrator 25.2.0, SVG Export Plug-In . SVG Version: 6.00 Build 0)  -->
<svg version="1.1" id="Layer_1" xmlns="http://www.w3.org/2000/svg" xmlns:xlink="http://www.w3.org/1999/xlink" x="0px" y="0px"
	 viewBox="0 0 264 280" style="enable-background:new 0 0 264 280;" xml:space="preserve">
<style type="text/css">
	.st0{fill:#CFCED9;}
	.st1{fill:#9F828B;}
	.st2{opacity:0.1;fill:#1D1D1B;}
	.st3{fill:url(#SVGID_1_);}
	.st4{fill:url(#SVGID_2_);}
	.st5{fill:none;stroke:#9F828B;stroke-miterlimit:10;}
	.st6{opacity:0.2;fill:#1D1D1B;}
	.st7{fill:#7D9681;}
	.st8{fill:#C4C3CC;}
</style>
<desc>Created with getavataaars.com</desc>
<g>
	<g>
		<path class="st0" d="M36.7,260.8C33.2,188,31.8,120.1,37,67.5c-0.7-13.1-0.4-26.2,1-39.2c0.4-4.2,1.1-8.6,3.7-11.6
			c2.4-2.8,6.2-3.8,9.7-3.3c3.5,0.5,6.7,2.3,9.7,4.3C67.4,21.8,73,27,78.6,32.1c5.3,4.9,10.6,9.7,16,14.6c24.8-8.3,49.6-8.3,74.4,0
			c5.3-4.9,10.6-9.7,16-14.6c5.6-5.1,11.3-10.3,17.5-14.4c3-2,6.2-3.8,9.7-4.3c3.5-0.5,7.2,0.5,9.7,3.3c2.6,3,3.3,7.5,3.7,11.6
			c1.4,13,1.7,26.1,1,39.2c6.3,42.6,3.7,116.8,0.4,193.3l-20.1-18.5c-0.9-0.8-2.4-0.7-3.1,0.3l-21.3,27.9l-13.2-29.4
			c-0.4-1-1.7-1.2-2.5-0.5l-20.9,20.3l-13-19.3c-0.5-0.8-20.6,26.7-20.6,26.7l-16.7-29.6c-0.6-1.1-2.1-1.1-2.8-0.1L68.5,275
			l-11.9-36.2c-0.2-0.7-1.1-0.9-1.6-0.3L36.7,260.8z"/>
		<path class="st1" d="M120.9,110.9l5.6,4c1.5,1,3.4,1.1,5,0.1l6-3.8c1.6-1,0.9-3.4-1-3.4l-14.7-0.1
			C120.2,107.8,119.5,110,120.9,110.9z"/>
		<path class="st2" d="M34.8,99l6.6,144.3l16.2-20.6L70.7,255l19.9-13.3L68.5,275l-11.9-36.2c2.2-3.2-12.3,11.7-19.9,22
			C33.6,206.5,32.8,152.5,34.8,99z"/>
		<linearGradient id="SVGID_1_" gradientUnits="userSpaceOnUse" x1="55.2956" y1="21.0901" x2="67.8157" y2="65.932">
			<stop  offset="0.4318" style="stop-color:#BABABC"/>
			<stop  offset="0.8967" style="stop-color:#CFCED9"/>
		</linearGradient>
		<path class="st3" d="M49.1,63.9c-0.4-6.7-0.2-13.5,0.6-20.2c0.3-2.2,0.7-4.5,2.2-6c1.4-1.5,3.6-2,5.6-1.7c2,0.3,3.9,1.2,5.6,2.2
			c3.6,2.1,6.9,4.8,10.1,7.4c3.1,2.5,6.2,5,9.3,7.5"/>
		
			<linearGradient id="SVGID_2_" gradientUnits="userSpaceOnUse" x1="-85.5463" y1="21.0901" x2="-73.0262" y2="65.9321" gradientTransform="matrix(-1 0 0 1 122.1994 0)">
			<stop  offset="0.4318" style="stop-color:#BABABC"/>
			<stop  offset="0.8967" style="stop-color:#CFCED9"/>
		</linearGradient>
		<path class="st4" d="M214,63.9c0.4-6.7,0.2-13.5-0.6-20.2c-0.3-2.2-0.7-4.5-2.2-6c-1.4-1.5-3.6-2-5.6-1.7s-3.9,1.2-5.6,2.2
			c-3.6,2.1-6.9,4.8-10.1,7.4c-3.1,2.5-6.2,5-9.3,7.5"/>
		<polyline class="st5" points="129.3,111.8 129.2,122.2 119.6,131.9 129.2,122.2 138.9,133 		"/>
		<ellipse class="st6" cx="82.4" cy="106.3" rx="10.2" ry="4.2"/>
		<path class="st7" d="M65.6,85.4c-2.5,24,36.9,29.5,36.1,0.4c0-1-0.8-1.8-1.8-1.8l-32.5-0.3C66.4,83.8,65.7,84.5,65.6,85.4z"/>
		<path class="st7" d="M159.5,85.9c-2,23.5,36.5,28.8,36.2,0.5c0-1.2-1-2.2-2.3-2.3l-31.6-0.3C160.6,83.8,159.6,84.7,159.5,85.9z"/>
		<ellipse class="st6" cx="177.5" cy="107.8" rx="10.2" ry="4.2"/>
	</g>
	<polygon class="st8" points="45.6,250 52.5,263.2 60.4,250.6 56.2,235.2 	"/>
	<path class="st8" d="M83.9,251.9l9.5,14.1l9.9-13.7l-7.7-13.6c-0.7-1.3-1.6-1.8-2.8-0.1L83.9,251.9z"/>
	<path class="st8" d="M123.5,251.9l8.2,11.3l8.1-11.4l-7-10.4c-0.8-0.7-1.5-0.8-2.1,0L123.5,251.9z"/>
	<path class="st8" d="M158.5,248.6l7.5,12.6l7.2-11.4l-3.9-8.7c-0.6-1-1.4-1.3-2.5-0.5L158.5,248.6z"/>
	<path class="st8" d="M216.2,250.9L205.6,266l-8.7-14.5l6.9-9c1-1.1,2-1.1,3.1-0.3L216.2,250.9z"/>
	<path class="st8" d="M121.9,104.6c1-1.3,2.2-3.5,3.2-4.9c0.3,0,0.1,1.1,0,1.2c-0.5,1.9-2.2,3.7-2.1,5.6c0,0.2,0.1,0.4,0.3,0.5
		c0.2,0.1,0.6,0.1,0.9,0c1-0.1,3.8,0.1,4.3,0.7c-1.4,0-4.4-0.1-5.8,0.1c-1.3,0.1-2,0.5-2.6,1.2C120,107.6,121,106,121.9,104.6z"/>
</g>
</svg>
